<?xml version="1.0" encoding="utf-8"?>
<!-- Generator: Adobe Illustrator 18.0.0, SVG Export Plug-In . SVG Version: 6.00 Build 0)  -->
<!DOCTYPE svg PUBLIC "-//W3C//DTD SVG 1.1//EN" "http://www.w3.org/Graphics/SVG/1.1/DTD/svg11.dtd">
<svg version="1.1" id="Слой_1" xmlns="http://www.w3.org/2000/svg" xmlns:xlink="http://www.w3.org/1999/xlink" x="0px" y="0px"
	 viewBox="558.7 192.5 1086.3 1875.1" enable-background="new 558.7 192.5 1086.3 1875.1" xml:space="preserve">
<g>
	<path d="M1297.8,1555c98.6-22.5,193.6-61.5,281-116.5c66.2-41.7,86.2-129.1,44.4-195.6c-41.7-66.4-129.1-86.4-195.6-44.7
		c-198.2,124.8-453.4,124.5-651.6,0c-66.4-41.7-153.8-21.7-195.6,44.7c-41.7,66.2-21.7,153.8,44.4,195.6
		c87.4,54.9,182.4,94,281,116.5l-270.3,270.5c-55.4,55.4-55.4,145,0,200.4c27.8,27.6,64,41.5,100.1,41.5
		c36.4,0,72.5-13.9,100.3-41.5l265.9-265.9l265.9,265.9c55.4,55.4,145,55.4,200.4,0c55.4-55.4,55.4-145.3,0-200.4L1297.8,1555z"/>
	<path d="M1102,1160.3c266.8,0,483.9-217,483.9-483.6c0-267.1-217-484.1-483.9-484.1c-266.8,0-483.9,217-483.9,483.9
		S835.2,1160.3,1102,1160.3z M1102,476.2L1102,476.2c110.6,0,200.4,89.8,200.4,200.4c0,110.4-89.8,200.2-200.4,200.2
		c-110.3,0-200.4-89.8-200.4-200.2C901.6,566,991.7,476.2,1102,476.2z"/>
</g>
</svg>
