<?xml version="1.0" encoding="utf-8"?>
<!-- Generator: Adobe Illustrator 18.0.0, SVG Export Plug-In . SVG Version: 6.00 Build 0)  -->
<!DOCTYPE svg PUBLIC "-//W3C//DTD SVG 1.1//EN" "http://www.w3.org/Graphics/SVG/1.1/DTD/svg11.dtd">
<svg version="1.1" id="Слой_1" xmlns="http://www.w3.org/2000/svg" xmlns:xlink="http://www.w3.org/1999/xlink" x="0px" y="0px"
	 viewBox="0 0 32 44" enable-background="new 0 0 32 44" xml:space="preserve">
<g>
	<g>
		<defs>
			<rect id="SVGID_1_" x="-270" y="-352" width="748" height="836"/>
		</defs>
		<clipPath id="SVGID_2_">
			<use xlink:href="#SVGID_1_"  overflow="visible"/>
		</clipPath>
	</g>
</g>
<path d="M31,24c-0.6,0-1,0.4-1,1v5H17v-2h8c0.8,0,1.6-0.3,2.1-0.9c0.5-0.6,0.8-1.4,0.7-2.2l-1.5-20C26.1,2.2,23.7,0,21,0H11
	C8.3,0,5.9,2.2,5.7,4.9l-1.5,20c-0.1,0.8,0.2,1.6,0.7,2.2C5.4,27.7,6.2,28,7,28h8v2H2v-5c0-0.6-0.4-1-1-1s-1,0.4-1,1v6v2
	c0,1.7,1.3,3,3,3h12v6H8c-0.6,0-1,0.4-1,1s0.4,1,1,1h16c0.6,0,1-0.4,1-1s-0.4-1-1-1h-7v-6h12c1.6,0,3-1.3,3-3v-2v-6
	C32,24.4,31.6,24,31,24z M7,26c-0.2,0-0.5-0.1-0.6-0.3c-0.2-0.2-0.2-0.4-0.2-0.7l1.5-20C7.8,3.4,9.3,2,11,2h10
	c1.7,0,3.2,1.4,3.3,3.1l1.5,20c0,0.3-0.1,0.5-0.2,0.7C25.5,25.9,25.3,26,25,26H7z M30,33c0,0.6-0.4,1-1,1H3c-0.6,0-1-0.4-1-1v-1h28
	V33z"/>
</svg>
