<?xml version="1.0" encoding="utf-8"?>
<!-- Generator: Adobe Illustrator 18.0.0, SVG Export Plug-In . SVG Version: 6.00 Build 0)  -->
<!DOCTYPE svg PUBLIC "-//W3C//DTD SVG 1.1//EN" "http://www.w3.org/Graphics/SVG/1.1/DTD/svg11.dtd">
<svg version="1.1" id="Слой_1" xmlns="http://www.w3.org/2000/svg" xmlns:xlink="http://www.w3.org/1999/xlink" x="0px" y="0px"
	 viewBox="0 0 41 34" enable-background="new 0 0 41 34" xml:space="preserve">
<g>
	<defs>
		<rect id="SVGID_1_" x="-2" width="44" height="44"/>
	</defs>
	<clipPath id="SVGID_2_">
		<use xlink:href="#SVGID_1_"  overflow="visible"/>
	</clipPath>
	<g clip-path="url(#SVGID_2_)">
		<defs>
			<rect id="SVGID_3_" x="-618" y="-708" width="748" height="836"/>
		</defs>
		<clipPath id="SVGID_4_">
			<use xlink:href="#SVGID_3_"  overflow="visible"/>
		</clipPath>
	</g>
</g>
<g>
	<path d="M38,6h-1.6l-1.5-3.3c-0.7-1.4-2.5-2.2-3.9-1.8L15.2,6H3C1.3,6,0,7.3,0,9v17c0,1.7,1.3,3,3,3h0l1.3,2.9
		c0.5,1.1,1.7,1.9,3,1.9c0.3,0,0.6,0,0.9-0.1L22.9,29H38c1.7,0,3-1.3,3-3V9C41,7.3,39.7,6,38,6z M31.5,2.9c0.6-0.2,1.3,0.1,1.5,0.7
		l0.8,1.8L24,5.3L31.5,2.9z M7.7,31.8c-0.1,0-0.2,0.1-0.3,0.1c-0.5,0-1-0.3-1.2-0.7l-0.8-1.8l9.9,0.1L7.7,31.8z M39,26
		c0,0.5-0.4,1-1,1H3c-0.6,0-1-0.4-1-1V9c0-0.5,0.4-1,1-1h35c0.6,0,1,0.4,1,1V26z"/>
	<path d="M21,12c-4.5,0-8,2.4-8,5.5s3.5,5.5,8,5.5c4.5,0,8-2.4,8-5.5S25.5,12,21,12z M21,21c-3.3,0-6-1.6-6-3.5c0-1.9,2.7-3.5,6-3.5
		c3.3,0,6,1.6,6,3.5C27,19.4,24.3,21,21,21z"/>
	<path d="M35.5,12c-0.8,0-1.5-0.7-1.5-1.5c0-0.1,0-0.2,0-0.3L34.3,9H6.7L7,10.2c0,0.1,0,0.2,0,0.3C7,11.3,6.3,12,5.5,12
		c-0.1,0-0.2,0-0.3,0L4,11.7v11.5L5.2,23c0.1,0,0.2,0,0.3,0C6.3,23,7,23.7,7,24.5c0,0.1,0,0.2,0,0.3L6.7,26h27.5L34,24.8
		c0-0.1,0-0.2,0-0.3c0-0.8,0.7-1.5,1.5-1.5c0.1,0,0.2,0,0.3,0l1.2,0.2V11.7L35.8,12C35.7,12,35.6,12,35.5,12z M35,21
		c-1.5,0.2-2.7,1.4-3,3H9c-0.2-1.5-1.4-2.7-3-3V14c1.5-0.2,2.7-1.4,3-3H32c0.2,1.5,1.4,2.7,3,3V21z"/>
</g>
</svg>
