<?xml version="1.0" encoding="utf-8"?>
<!-- Generator: Adobe Illustrator 18.0.0, SVG Export Plug-In . SVG Version: 6.00 Build 0)  -->
<!DOCTYPE svg PUBLIC "-//W3C//DTD SVG 1.1//EN" "http://www.w3.org/Graphics/SVG/1.1/DTD/svg11.dtd">
<svg version="1.1" id="Слой_1" xmlns="http://www.w3.org/2000/svg" xmlns:xlink="http://www.w3.org/1999/xlink" x="0px" y="0px"
	 viewBox="0 0 34 40" enable-background="new 0 0 34 40" xml:space="preserve">
<g>
	<g>
		<defs>
			<rect id="SVGID_1_" x="-445" y="-618" width="748" height="836"/>
		</defs>
		<clipPath id="SVGID_2_">
			<use xlink:href="#SVGID_1_"  overflow="visible"/>
		</clipPath>
	</g>
</g>
<g>
	<path d="M28,6V5c0-1.7,1.3-3,3-3c0.6,0,1-0.4,1-1s-0.4-1-1-1H3C2.4,0,2,0.4,2,1s0.4,1,1,1c1.7,0,3,1.3,3,3v1c-3.3,0-6,2.7-6,6
		s2.7,6,6,6c0.1,0,0.1,0,0.2,0c0.9,4.8,4.9,8.5,9.8,9V38H9c-0.6,0-1,0.4-1,1s0.4,1,1,1h16c0.6,0,1-0.4,1-1s-0.4-1-1-1h-7V26.9
		c4.9-0.4,8.9-4.2,9.8-9c0.1,0,0.1,0,0.2,0c3.3,0,6-2.7,6-6C34,8.7,31.3,6,28,6z M2,12c0-2.2,1.8-4,4-4v8C3.8,16,2,14.2,2,12z
		 M26,16c0,5-4.1,9-9,9c-5,0-9-4-9-9V5c0-1.1-0.4-2.2-1-3h20c-0.6,0.8-1,1.9-1,3V16z M28,16V8c2.2,0,4,1.8,4,4S30.2,16,28,16z"/>
	<path d="M17,21c-2.8,0-5-2.2-5-5c0-0.6-0.4-1-1-1s-1,0.4-1,1c0,3.9,3.1,7,7,7c0.6,0,1-0.4,1-1S17.6,21,17,21z"/>
</g>
</svg>
