<?xml version="1.0" encoding="utf-8"?>
<!-- Generator: Adobe Illustrator 18.0.0, SVG Export Plug-In . SVG Version: 6.00 Build 0)  -->
<!DOCTYPE svg PUBLIC "-//W3C//DTD SVG 1.1//EN" "http://www.w3.org/Graphics/SVG/1.1/DTD/svg11.dtd">
<svg version="1.1" id="Layer_1" xmlns="http://www.w3.org/2000/svg" xmlns:xlink="http://www.w3.org/1999/xlink" x="0px" y="0px"
	 viewBox="24 24 80 80" enable-background="new 24 24 80 80" xml:space="preserve">
<g>
</g>
<g>
	<path d="M82.3,24H45.7C33.7,24,24,33.7,24,45.7v36.7c0,11.9,9.7,21.7,21.7,21.7h36.7c11.9,0,21.7-9.7,21.7-21.7V45.7
		C104,33.7,94.3,24,82.3,24z M97.3,82.3c0,8.3-6.7,15-15,15H45.7c-8.3,0-15-6.7-15-15V45.7c0-8.3,6.7-15,15-15h36.7
		c8.3,0,15,6.7,15,15V82.3z"/>
	<path d="M64,44c-11,0-20,9-20,20c0,11,9,20,20,20s20-9,20-20C84,53,75,44,64,44z M64,77.3c-7.4,0-13.3-6-13.3-13.3
		c0-7.4,6-13.3,13.3-13.3c7.4,0,13.3,6,13.3,13.3C77.3,71.4,71.4,77.3,64,77.3z"/>
	<circle cx="85.3" cy="42.8" r="4.6"/>
</g>
</svg>
